<svg xmlns="http://www.w3.org/2000/svg" width="1200" height="780" viewBox="0 0 1200 780" fill="none">
  <defs>
    <style>
      .node rect { fill: #0d1b2f; stroke: #4ea1ff; stroke-width: 1.5; }
      .node text { fill: #e8eefc; font-family: "Helvetica", Arial, sans-serif; font-size: 14px; }
      .edge { stroke: #9ac7ff; stroke-width: 2; fill: none; }
      .edge-label { fill: #cdd9f5; font-family: "Helvetica", Arial, sans-serif; font-size: 12px; }
    </style>
    <marker id="arrow" viewBox="0 0 10 10" refX="10" refY="5" markerWidth="7" markerHeight="7" orient="auto-start-reverse">
      <path d="M 0 0 L 10 5 L 0 10 z" fill="#9ac7ff" />
    </marker>
  </defs>

  <g class="node" id="v1">
    <rect x="40" y="40" width="180" height="64" rx="10" ry="10" />
    <text x="130" y="72" text-anchor="middle">
      <tspan x="130" dy="0">Visitor</tspan>
      <tspan x="130" dy="18">Open site</tspan>
    </text>
  </g>
  <g class="node" id="v2">
    <rect x="40" y="140" width="180" height="64" rx="10" ry="10" />
    <text x="130" y="172" text-anchor="middle">
      <tspan x="130" dy="0">Login /</tspan>
      <tspan x="130" dy="18">choose role</tspan>
    </text>
  </g>

  <g class="node" id="a1">
    <rect x="260" y="100" width="180" height="64" rx="10" ry="10" />
    <text x="350" y="132" text-anchor="middle">
      <tspan x="350" dy="0">Auth</tspan>
      <tspan x="350" dy="18">Google/social login</tspan>
      <tspan x="350" dy="18">with role</tspan>
    </text>
  </g>

  <g class="node" id="c1">
    <rect x="480" y="60" width="180" height="64" rx="10" ry="10" />
    <text x="570" y="92" text-anchor="middle">
      <tspan x="570" dy="0">Home dashboard</tspan>
    </text>
  </g>
  <g class="node" id="c2">
    <rect x="480" y="160" width="180" height="64" rx="10" ry="10" />
    <text x="570" y="192" text-anchor="middle">
      <tspan x="570" dy="0">Calendar feed</tspan>
    </text>
  </g>
  <g class="node" id="c3">
    <rect x="480" y="260" width="180" height="64" rx="10" ry="10" />
    <text x="570" y="292" text-anchor="middle">
      <tspan x="570" dy="0">Reservations</tspan>
      <tspan x="570" dy="18">(room requests)</tspan>
    </text>
  </g>
  <g class="node" id="c4">
    <rect x="480" y="360" width="180" height="64" rx="10" ry="10" />
    <text x="570" y="392" text-anchor="middle">
      <tspan x="570" dy="0">Profile &amp; certs</tspan>
    </text>
  </g>

  <g class="node" id="s1">
    <rect x="760" y="40" width="180" height="64" rx="10" ry="10" />
    <text x="850" y="72" text-anchor="middle">
      <tspan x="850" dy="0">Training list</tspan>
    </text>
  </g>
  <g class="node" id="s2">
    <rect x="760" y="140" width="180" height="64" rx="10" ry="10" />
    <text x="850" y="172" text-anchor="middle">
      <tspan x="850" dy="0">Book training</tspan>
    </text>
  </g>
  <g class="node" id="s3">
    <rect x="760" y="240" width="180" height="64" rx="10" ry="10" />
    <text x="850" y="272" text-anchor="middle">
      <tspan x="850" dy="0">My trainings</tspan>
      <tspan x="850" dy="18">/ cancel</tspan>
    </text>
  </g>
  <g class="node" id="t1">
    <rect x="760" y="340" width="180" height="64" rx="10" ry="10" />
    <text x="850" y="372" text-anchor="middle">
      <tspan x="850" dy="0">Schedule overview</tspan>
    </text>
  </g>
  <g class="node" id="t2">
    <rect x="760" y="440" width="180" height="64" rx="10" ry="10" />
    <text x="850" y="472" text-anchor="middle">
      <tspan x="850" dy="0">Add availability</tspan>
    </text>
  </g>
  <g class="node" id="t3">
    <rect x="760" y="540" width="180" height="64" rx="10" ry="10" />
    <text x="850" y="572" text-anchor="middle">
      <tspan x="850" dy="0">Published shifts</tspan>
    </text>
  </g>
  <g class="node" id="t4">
    <rect x="760" y="640" width="180" height="64" rx="10" ry="10" />
    <text x="850" y="672" text-anchor="middle">
      <tspan x="850" dy="0">Request swap</tspan>
    </text>
  </g>

  <g class="node" id="ad1">
    <rect x="1000" y="0" width="180" height="64" rx="10" ry="10" />
    <text x="1090" y="32" text-anchor="middle">
      <tspan x="1090" dy="0">Reports (admin)</tspan>
    </text>
  </g>

  <g class="node" id="st1">
    <rect x="1000" y="80" width="180" height="64" rx="10" ry="10" />
    <text x="1090" y="112" text-anchor="middle">
      <tspan x="1090" dy="0">Staff training list</tspan>
    </text>
  </g>
  <g class="node" id="st2">
    <rect x="1000" y="180" width="180" height="64" rx="10" ry="10" />
    <text x="1090" y="212" text-anchor="middle">
      <tspan x="1090" dy="0">Create/edit</tspan>
      <tspan x="1090" dy="18">trainings</tspan>
    </text>
  </g>
  <g class="node" id="st3">
    <rect x="1000" y="280" width="180" height="64" rx="10" ry="10" />
    <text x="1090" y="312" text-anchor="middle">
      <tspan x="1090" dy="0">Publish training</tspan>
      <tspan x="1090" dy="18">slots</tspan>
    </text>
  </g>
  <g class="node" id="sb1">
    <rect x="1000" y="380" width="180" height="64" rx="10" ry="10" />
    <text x="1090" y="412" text-anchor="middle">
      <tspan x="1090" dy="0">Schedule builder</tspan>
    </text>
  </g>
  <g class="node" id="sb2">
    <rect x="1000" y="480" width="180" height="64" rx="10" ry="10" />
    <text x="1090" y="512" text-anchor="middle">
      <tspan x="1090" dy="0">Create/edit</tspan>
      <tspan x="1090" dy="18">shifts</tspan>
    </text>
  </g>
  <g class="node" id="sb3">
    <rect x="1000" y="580" width="180" height="64" rx="10" ry="10" />
    <text x="1090" y="612" text-anchor="middle">
      <tspan x="1090" dy="0">Publish weekly</tspan>
      <tspan x="1090" dy="18">schedule</tspan>
    </text>
  </g>
  <g class="node" id="sb4">
    <rect x="1000" y="680" width="180" height="64" rx="10" ry="10" />
    <text x="1090" y="712" text-anchor="middle">
      <tspan x="1090" dy="0">Handle swap</tspan>
      <tspan x="1090" dy="18">requests</tspan>
    </text>
  </g>

  <g class="node" id="sm1">
    <rect x="480" y="500" width="180" height="64" rx="10" ry="10" />
    <text x="570" y="532" text-anchor="middle">
      <tspan x="570" dy="0">Manage users</tspan>
      <tspan x="570" dy="18">roles/certs</tspan>
    </text>
  </g>
  <g class="node" id="ss1">
    <rect x="480" y="600" width="180" height="64" rx="10" ry="10" />
    <text x="570" y="632" text-anchor="middle">
      <tspan x="570" dy="0">Semester settings</tspan>
      <tspan x="570" dy="18">hours/holidays</tspan>
    </text>
  </g>

  <!-- Edges -->
  <line class="edge" x1="130" y1="104" x2="130" y2="140" marker-end="url(#arrow)" />
  <line class="edge" x1="130" y1="204" x2="350" y2="132" marker-end="url(#arrow)" />
  <line class="edge" x1="350" y1="164" x2="570" y2="92" marker-end="url(#arrow)" />

  <line class="edge" x1="570" y1="124" x2="570" y2="160" marker-end="url(#arrow)" />
  <line class="edge" x1="570" y1="224" x2="570" y2="260" marker-end="url(#arrow)" />
  <line class="edge" x1="570" y1="324" x2="570" y2="360" marker-end="url(#arrow)" />

  <line class="edge" x1="660" y1="92" x2="760" y2="72" marker-end="url(#arrow)" />
  <line class="edge" x1="660" y1="292" x2="760" y2="172" marker-end="url(#arrow)" />
  <line class="edge" x1="660" y1="392" x2="570" y2="532" marker-end="url(#arrow)" />
  <line class="edge" x1="660" y1="632" x2="1090" y2="380" marker-end="url(#arrow)" />

  <line class="edge" x1="850" y1="104" x2="850" y2="140" marker-end="url(#arrow)" />
  <line class="edge" x1="850" y1="204" x2="850" y2="240" marker-end="url(#arrow)" />
  <line class="edge" x1="850" y1="272" x2="1090" y2="300" marker-end="url(#arrow)" />
  <line class="edge" x1="850" y1="324" x2="850" y2="340" marker-end="url(#arrow)" />
  <line class="edge" x1="850" y1="404" x2="850" y2="440" marker-end="url(#arrow)" />
  <line class="edge" x1="850" y1="504" x2="850" y2="540" marker-end="url(#arrow)" />
  <line class="edge" x1="850" y1="604" x2="850" y2="640" marker-end="url(#arrow)" />

  <line class="edge" x1="1090" y1="64" x2="1090" y2="80" marker-end="url(#arrow)" />
  <line class="edge" x1="1090" y1="144" x2="1090" y2="180" marker-end="url(#arrow)" />
  <line class="edge" x1="1090" y1="244" x2="1090" y2="280" marker-end="url(#arrow)" />
  <line class="edge" x1="1090" y1="344" x2="1090" y2="380" marker-end="url(#arrow)" />
  <line class="edge" x1="1090" y1="444" x2="1090" y2="480" marker-end="url(#arrow)" />
  <line class="edge" x1="1090" y1="544" x2="1090" y2="580" marker-end="url(#arrow)" />
  <line class="edge" x1="1090" y1="644" x2="1090" y2="680" marker-end="url(#arrow)" />

  <line class="edge" x1="850" y1="472" x2="1090" y2="380" marker-end="url(#arrow)" />
  <line class="edge" x1="1090" y1="612" x2="850" y2="572" marker-end="url(#arrow)" />
  <line class="edge" x1="1090" y1="712" x2="850" y2="604" marker-end="url(#arrow)" />

  <line class="edge" x1="570" y1="564" x2="1090" y2="480" marker-end="url(#arrow)" />
  <line class="edge" x1="570" y1="664" x2="1090" y2="412" marker-end="url(#arrow)" />

  <line class="edge" x1="570" y1="292" x2="850" y2="172" marker-end="url(#arrow)" />
  <text class="edge-label" x="700" y="230">Room request → staff review</text>
</svg>
